<?xml version="1.0" encoding="iso-8859-1"?>
<!-- Uploaded to: SVG Repo, www.svgrepo.com, Generator: SVG Repo Mixer Tools -->
<svg xmlns="http://www.w3.org/2000/svg" xmlns:xlink="http://www.w3.org/1999/xlink" version="1.1" id="Capa_1"  viewBox="0 0 455 455" xml:space="preserve" width="512" height="512">
<g>
	<polygon style="fill:#FF3B3B;" points="0,132.07 0,390 425,390 445,332.07 445,132.07  "/>
	<path style="fill:#CB2E3E;" d="M425,189.66V390h30V65L227.5,95.89L0,65v67.07l24.23,48.45C34.21,200.5,57.67,215,80,215h295   C393.76,215,413.31,204.77,425,189.66C425,189.66,413.31,204.77,425,189.66z"/>
	<circle style="fill:#CB2E3E;" cx="380" cy="300" r="7.5"/>
	<circle style="fill:#CB2E3E;" cx="75" cy="270" r="7.5"/>
	<circle style="fill:#CB2E3E;" cx="350" cy="330" r="7.5"/>
	<path style="fill:#FF6761;" d="M425,65c0,0-80,35.29-80,120h30c11,0,24.02-8.05,28.94-17.89L455,65H425z"/>
	<path style="fill:#FF9387;" d="M425,65l-51.06,102.11C369.02,176.95,356,185,345,185H80c-11,0-24.02-8.05-28.94-17.89L0,65H425z"/>
	<path style="fill:#FFFFFF;" d="M258.989,125c-13.56,0-25.349,7.507-31.489,18.582C221.36,132.507,209.571,125,196.011,125   C176.123,125,160,141.123,160,161.011c0,50.44,67.5,87.121,67.5,87.121s67.5-36.681,67.5-87.121   C295,141.123,278.877,125,258.989,125z"/>
	<path style="fill:#FFF1CF;" d="M259.311,194.066h-63.621c-4.143,0-7.5-3.357-7.5-7.5s3.357-7.5,7.5-7.5h63.621   c4.143,0,7.5,3.357,7.5,7.5S263.453,194.066,259.311,194.066z"/>
</g>















</svg>